<svg id="Layer_1" data-name="Layer 1" xmlns="http://www.w3.org/2000/svg" viewBox="0 0 691.78 110.11"><title>Amplyfi - Logo - White - v01</title><polygon points="48.99 0 0 110.07 25.62 110.07 60.23 28.87 94.83 110.07 121.13 110.07 72.13 0 48.99 0" fill="#fff"/><polygon points="158.44 110.07 158.44 44.23 185.32 110.07 196.33 110.07 223.52 43.74 223.52 110.07 248.71 110.07 248.71 0.04 217.4 0.04 191.14 66.77 164.93 0.04 133.62 0.04 133.62 110.07 158.44 110.07" fill="#fff"/><polygon points="45.94 84.8 74.42 84.8 60.18 110.07 45.94 84.8" fill="#fff"/><polygon points="376.85 0.04 402.12 0.04 402.12 88.06 459.5 88.06 459.5 110.06 376.85 110.06 376.85 0.04" fill="#fff"/><polygon points="483.43 66.68 439.19 0.03 468.8 0.03 496.27 44.18 524.18 0.03 552.94 0.03 508.75 66.18 508.75 110.07 483.43 110.07 483.43 66.68" fill="#fff"/><polygon points="563.23 0.04 650.8 0.04 650.8 22.04 588.55 22.04 588.55 45.43 643.42 45.43 643.42 67.44 588.55 67.44 588.55 110.06 563.23 110.06 563.23 0.04" fill="#fff"/><polygon points="666.46 45.34 666.46 110.06 691.78 110.06 691.78 31.03 666.46 45.34" fill="#fff"/><polygon points="666.51 28.52 666.51 0.04 691.78 14.28 666.51 28.52" fill="#fff"/><path d="M368.52,100.81c12.66,0,20-7.24,20-16.68v-.27c0-10.82-7.86-16.69-20.52-16.69H348.44v33.64ZM323.17,45.35H370c27.47,0,44.05,15.56,44.05,38.06v.32c0,25.44-20.7,38.69-46.5,38.69H348.26v33H323.17Z" transform="translate(-52.82 -45.32)" fill="#fff"/></svg>